<?xml version="1.0" encoding="utf-8"?>
<!-- Generator: Adobe Illustrator 24.3.0, SVG Export Plug-In . SVG Version: 6.00 Build 0)  -->
<svg version="1.1" xmlns="http://www.w3.org/2000/svg" xmlns:xlink="http://www.w3.org/1999/xlink" x="0px" y="0px"
	 viewBox="0 0 1120 140" style="enable-background:new 0 0 1120 140;" xml:space="preserve">
<style type="text/css">
	.st0{fill:#D74D3C;}
	.st1{fill:#FFFFFF;}
</style>
<g id="Слой_1">
	<g>
		<path d="M46.1,70.7c-1.6,1.7-2.8,3.3-3.7,5c-0.8,1.6-1.3,3.2-1.3,4.7c0,2,0.4,3.8,1.3,5.7c0.9,1.8,2.1,3.5,3.7,5.1
			c3.3,3.3,7.3,4.9,12,4.9h14.4V115H58.2c-4.9,0-9.5-0.9-13.9-2.8c-4.4-1.9-8.2-4.4-11.5-7.6c-3.3-3.2-5.9-7-7.8-11.4
			c-1.9-4.3-2.9-8.5-2.9-12.4c0-3.7,0.9-7.8,2.7-12.2c1.8-4.4,4.3-8.2,7.6-11.4c3.2-3.2,7-5.8,11.4-7.8c4.4-1.9,9.2-2.9,14.3-2.9
			h14.4v19.3H58.2C53.4,65.8,49.4,67.5,46.1,70.7z"/>
		<path d="M112.5,44.7c5,0,9.6,0.9,14,2.8s8.2,4.4,11.4,7.6c3.2,3.2,5.8,7,7.7,11.4c1.9,4.3,2.9,9,2.9,14c0,5-0.9,9.6-2.7,14
			c-1.8,4.4-4.3,8.2-7.6,11.4c-3.2,3.2-7,5.8-11.4,7.8c-4.3,1.9-9,2.9-14,2.9c-5,0-9.6-0.9-14-2.8c-4.4-1.9-8.2-4.4-11.5-7.6
			c-3.3-3.2-5.9-7-7.8-11.4c-1.9-4.3-2.9-9-2.9-14c0-5,0.9-9.6,2.7-14c1.8-4.4,4.3-8.2,7.6-11.4c3.2-3.2,7-5.8,11.4-7.8
			C102.8,45.6,107.5,44.7,112.5,44.7z M124.6,92.7c3.3-3.3,4.9-7.3,4.9-12c0-2.3-0.4-4.5-1.3-6.5c-0.9-2-2.1-3.9-3.7-5.5
			c-3.4-3.2-7.4-4.8-12-4.8c-4.6,0-8.6,1.6-11.8,4.9c-3.3,3.5-4.9,7.4-4.9,12c0,4.6,1.7,8.6,5.1,12c3.3,3.3,7.3,4.9,12,4.9
			c2.3-0.1,4.5-0.6,6.5-1.4C121.3,95.5,123,94.3,124.6,92.7z"/>
		<path d="M206.5,83.1v-2.7c0-2.2-0.4-4.3-1.3-6.3c-0.9-2-2.1-3.7-3.7-5.3c-1.6-1.5-3.3-2.7-5.4-3.6c-2-0.9-4.2-1.3-6.5-1.3
			c-2.2,0-4.3,0.4-6.3,1.3c-2,0.8-3.7,2-5.3,3.5c-1.5,1.5-2.7,3.1-3.7,5.1c-0.9,1.9-1.4,4-1.5,6.2V115h-19V46.7h19v5.2
			c1.8-2.4,4.2-4.2,7.4-5.3c3.1-1.2,6.3-1.7,9.4-1.7c5,0,9.6,0.9,14,2.8c4.3,1.9,8.2,4.4,11.4,7.6c3.3,3.2,5.9,7,7.7,11.3
			c1.9,4.3,2.8,9,2.8,13.9V115h-19v-2.5V83.1z"/>
		<path d="M277,115h-19.2L231.5,60V46.5h14.6l21.3,45.2l21.3-45.2h14.6V60L277,115z"/>
		<path d="M364,88.2h-37.5c0.7,1.5,1.8,3.1,3.3,4.7c3.3,3.3,7.3,4.9,12,4.9c3.6-0.1,6.9-1.2,9.8-3.3l16.5,10.5
			c-3.2,3.6-7,6.5-11.5,8.6c-4.5,2.1-9.4,3.1-14.7,3.1c-5,0-9.6-0.9-14-2.8c-4.4-1.9-8.2-4.4-11.5-7.6c-3.3-3.2-5.9-7-7.8-11.4
			c-1.9-4.3-2.9-9-2.9-14c0-5,0.9-9.6,2.8-14c1.9-4.4,4.4-8.2,7.6-11.5c3.2-3.3,7-5.9,11.3-7.8c4.3-1.9,9-2.9,14.1-2.9
			c5,0,9.6,0.9,14,2.8c4.4,1.9,8.2,4.4,11.4,7.6c3.2,3.2,5.8,7,7.7,11.4c1.9,4.3,2.9,9,2.9,14c0,2.7-0.3,5.2-0.8,7.7H364z M341.5,64
			c-4.6,0-8.6,1.6-11.8,4.9c-2,2.1-3.3,4.3-4.1,6.6h32.2c-0.8-2.6-2.2-4.8-4.3-6.8C350.1,65.5,346.1,64,341.5,64z"/>
		<path d="M422.2,64c-5.9,0.1-10.8,1.7-14.6,4.7c-3.8,3.1-5.8,6.8-6.1,11.2V115h-19V46.5h19v5.2c1.8-2.4,4.3-4.2,7.6-5.3
			c3.3-1.2,7.6-1.7,13-1.7V64z"/>
		<path d="M443.2,115V65.5h-15.4v-19h15.4V22.6h19v23.9h16v19h-16V115H443.2z"/>
		<path d="M485,84.6V65.7h45.5v18.9H485z"/>
		<path class="st0" d="M536.6,65.5v-19H552v-1.6c0-4.3,0.7-8.3,2.1-12c1.4-3.8,3.3-7.2,5.9-10.3L573.7,36c-1.7,2.7-2.6,5.7-2.7,8.9
			v1.6h16v19h-16V115h-19V65.5H536.6z"/>
		<path class="st0" d="M592,32.4c0-2.8,1-5.2,2.9-7c1.9-1.9,4.3-2.8,7.1-2.8c2.8,0,5.2,0.9,7,2.8c1.9,1.9,2.8,4.2,2.8,7
			c0,2.8-0.9,5.2-2.8,7.1c-1.9,1.9-4.2,2.9-7,2.9c-2.8,0-5.2-1-7.1-2.9C593,37.6,592,35.3,592,32.4z M611.5,115h-19V46.5h19V115z"/>
		<path class="st0" d="M636.2,115h-19V22.6h19V115z"/>
		<path class="st0" d="M700.6,88.2h-37.5c0.7,1.5,1.8,3.1,3.3,4.7c3.3,3.3,7.3,4.9,12,4.9c3.6-0.1,6.9-1.2,9.8-3.3l16.5,10.5
			c-3.2,3.6-7,6.5-11.5,8.6c-4.5,2.1-9.4,3.1-14.7,3.1c-5,0-9.6-0.9-14-2.8c-4.4-1.9-8.2-4.4-11.5-7.6c-3.3-3.2-5.9-7-7.8-11.4
			c-1.9-4.3-2.9-9-2.9-14c0-5,0.9-9.6,2.8-14s4.4-8.2,7.6-11.5c3.2-3.3,7-5.9,11.3-7.8c4.3-1.9,9-2.9,14.1-2.9c5,0,9.6,0.9,14,2.8
			c4.4,1.9,8.2,4.4,11.4,7.6c3.2,3.2,5.8,7,7.7,11.4c1.9,4.3,2.9,9,2.9,14c0,2.7-0.3,5.2-0.8,7.7H700.6z M678.1,64
			c-4.6,0-8.6,1.6-11.8,4.9c-2,2.1-3.3,4.3-4.1,6.6h32.2c-0.8-2.6-2.2-4.8-4.3-6.8C686.7,65.5,682.7,64,678.1,64z"/>
		<path d="M737.7,115h-19V96h19V115z"/>
		<path d="M779.2,44.7c5,0,9.6,0.9,14,2.8c4.4,1.9,8.2,4.4,11.4,7.6c3.2,3.2,5.8,7,7.7,11.4c1.9,4.3,2.9,9,2.9,14
			c0,5-0.9,9.6-2.7,14c-1.8,4.4-4.3,8.2-7.6,11.4c-3.2,3.2-7,5.8-11.4,7.8c-4.3,1.9-9,2.9-14,2.9c-5,0-9.6-0.9-14-2.8
			c-4.4-1.9-8.2-4.4-11.5-7.6c-3.3-3.2-5.9-7-7.8-11.4c-1.9-4.3-2.9-9-2.9-14c0-5,0.9-9.6,2.7-14c1.8-4.4,4.3-8.2,7.6-11.4
			c3.2-3.2,7-5.8,11.4-7.8C769.5,45.6,774.2,44.7,779.2,44.7z M791.3,92.7c3.3-3.3,4.9-7.3,4.9-12c0-2.3-0.4-4.5-1.3-6.5
			c-0.9-2-2.1-3.9-3.7-5.5c-3.4-3.2-7.4-4.8-12-4.8c-4.6,0-8.6,1.6-11.8,4.9c-3.3,3.5-4.9,7.4-4.9,12c0,4.6,1.7,8.6,5.1,12
			c3.3,3.3,7.3,4.9,12,4.9c2.3-0.1,4.5-0.6,6.5-1.4C788,95.5,789.8,94.3,791.3,92.7z"/>
		<path d="M873.2,83.1v-2.7c0-2.2-0.4-4.3-1.3-6.3c-0.9-2-2.1-3.7-3.7-5.3c-1.6-1.5-3.3-2.7-5.4-3.6c-2-0.9-4.2-1.3-6.5-1.3
			c-2.2,0-4.3,0.4-6.3,1.3c-2,0.8-3.7,2-5.3,3.5c-1.5,1.5-2.7,3.1-3.7,5.1c-0.9,1.9-1.4,4-1.5,6.2V115h-19V46.7h19v5.2
			c1.8-2.4,4.2-4.2,7.4-5.3c3.1-1.2,6.3-1.7,9.4-1.7c5,0,9.6,0.9,14,2.8c4.3,1.9,8.2,4.4,11.4,7.6c3.3,3.2,5.9,7,7.7,11.3
			c1.9,4.3,2.8,9,2.8,13.9V115h-19v-2.5V83.1z"/>
		<path d="M916.9,115h-19V22.6h19V115z"/>
		<path d="M922.1,32.4c0-2.8,1-5.2,2.9-7c1.9-1.9,4.3-2.8,7.1-2.8c2.8,0,5.2,0.9,7,2.8c1.9,1.9,2.8,4.2,2.8,7c0,2.8-0.9,5.2-2.8,7.1
			c-1.9,1.9-4.2,2.9-7,2.9c-2.8,0-5.2-1-7.1-2.9C923.1,37.6,922.1,35.3,922.1,32.4z M941.6,115h-19V46.5h19V115z"/>
		<path d="M999.9,83.1v-2.7c0-2.2-0.4-4.3-1.3-6.3c-0.9-2-2.1-3.7-3.7-5.3c-1.6-1.5-3.3-2.7-5.4-3.6c-2-0.9-4.2-1.3-6.5-1.3
			c-2.2,0-4.3,0.4-6.3,1.3c-2,0.8-3.7,2-5.3,3.5c-1.5,1.5-2.7,3.1-3.7,5.1c-0.9,1.9-1.4,4-1.5,6.2V115h-19V46.7h19v5.2
			c1.8-2.4,4.2-4.2,7.4-5.3c3.1-1.2,6.3-1.7,9.4-1.7c5,0,9.6,0.9,14,2.8c4.3,1.9,8.2,4.4,11.4,7.6c3.3,3.2,5.9,7,7.7,11.3
			c1.9,4.3,2.8,9,2.8,13.9V115h-19v-2.5V83.1z"/>
		<path d="M1083.5,88.2H1046c0.7,1.5,1.8,3.1,3.3,4.7c3.3,3.3,7.3,4.9,12,4.9c3.6-0.1,6.9-1.2,9.8-3.3l16.5,10.5
			c-3.2,3.6-7,6.5-11.5,8.6c-4.5,2.1-9.4,3.1-14.7,3.1c-5,0-9.6-0.9-14-2.8c-4.4-1.9-8.2-4.4-11.5-7.6c-3.3-3.2-5.9-7-7.8-11.4
			c-1.9-4.3-2.9-9-2.9-14c0-5,0.9-9.6,2.8-14s4.4-8.2,7.6-11.5c3.2-3.3,7-5.9,11.3-7.8c4.3-1.9,9-2.9,14.1-2.9c5,0,9.6,0.9,14,2.8
			c4.4,1.9,8.2,4.4,11.4,7.6c3.2,3.2,5.8,7,7.7,11.4c1.9,4.3,2.9,9,2.9,14c0,2.7-0.3,5.2-0.8,7.7H1083.5z M1061,64
			c-4.6,0-8.6,1.6-11.8,4.9c-2,2.1-3.3,4.3-4.1,6.6h32.2c-0.8-2.6-2.2-4.8-4.3-6.8C1069.6,65.5,1065.6,64,1061,64z"/>
	</g>
	<rect x="76" y="27" class="st1" width="75" height="104"/>
</g>
<g id="Слой_3">
	<g>
		<path d="M129.3,48.6c-0.9,0.4-1.8,0.7-2.8,0.7c-0.3,0.1-0.5,0.2-0.8,0.3c-0.8,0.2-1.5,0.3-2.3,0.1c-0.7,0-1.4-0.2-2-0.6
			c-0.7-0.1-1.4-0.3-2.1-0.7l-0.1-0.1c-0.7,0-1.5,0-2.2,0c-2.5,0-4.4-1.6-5.3-3.7c-19,0.5-34.3,16.1-34.3,35.2
			c0,19.5,15.8,35.2,35.2,35.2c19.5,0,35.2-15.8,35.2-35.2C148,66.3,140.4,54.6,129.3,48.6z"/>
		<path class="st1" d="M109.2,109.6c0,0,22.6,1.6,30.6-14.2c0,0-10.8,13.9-31,12.3l0,0"/>
		<path class="st0" d="M112.7,44.5c-19.5,0-35.2,15.8-35.2,35.2c0,13.5,7.6,25.2,18.8,31.2c0.9-0.6,1.9-0.9,3-0.9c0,0,0.1,0,0.1,0
			c0.5-0.2,1-0.3,1.6-0.4c0.4-0.1,0.7-0.1,1.1-0.1c0.3,0,0.5,0,0.8,0.1c0.5-0.2,1.1-0.2,1.6-0.2c0,0,0.1,0,0.1,0
			c1.5-3.4,3-6.8,4.4-10.3c4.3-10.4,8.3-20.9,12.9-31.2c2.8-6.2,5.7-12.5,8.1-18.9C124.9,46.2,119,44.5,112.7,44.5z"/>
		<circle class="st1" cx="112.8" cy="79.8" r="23.4"/>
		<polygon class="st1" points="122.7,72.1 119.4,49.6 141.8,46.3 		"/>
		<polygon points="125.2,73.8 121.9,51.3 144.3,48 		"/>
		<path class="st1" d="M119.4,49.6c0,0-22.3-3.8-31.8,11.1c0,0,12.1-12.7,32.1-9.2l0,0"/>
		<polyline class="st1" points="84.4,113.3 105.8,84.5 109.4,109.6 		"/>
		<polyline class="st0" points="82,111.7 103.3,83 107,108.1 		"/>
	</g>
</g>
<g id="Слой_2">
	<path class="st0" d="M558.8,23.8c0,0,8.5-10.3,22.4-11.6l0.6,19.3c0,0-5.8,0.8-9.2,5.7L558.8,23.8z"/>
</g>
</svg>
