<?xml version="1.0" encoding="utf-8"?>
<!-- Generator: Adobe Illustrator 24.3.0, SVG Export Plug-In . SVG Version: 6.00 Build 0)  -->
<svg version="1.1" xmlns="http://www.w3.org/2000/svg" xmlns:xlink="http://www.w3.org/1999/xlink" x="0px" y="0px"
	 viewBox="0 0 1120 140" style="enable-background:new 0 0 1120 140;" xml:space="preserve">
<style type="text/css">
	.st0{fill:#D74D3C;}
</style>
<g id="Слой_2">
</g>
<g id="Слой_1">
	<path d="M46.1,70.7c-1.6,1.7-2.8,3.3-3.7,5c-0.8,1.6-1.3,3.2-1.3,4.7c0,2,0.4,3.8,1.3,5.7c0.9,1.8,2.1,3.5,3.7,5.1
		c3.3,3.3,7.3,4.9,12,4.9h14.4V115H58.2c-4.9,0-9.5-0.9-13.9-2.8s-8.2-4.4-11.5-7.6s-5.9-7-7.8-11.4c-1.9-4.3-2.9-8.5-2.9-12.4
		c0-3.7,0.9-7.8,2.7-12.2c1.8-4.4,4.3-8.2,7.6-11.4c3.2-3.2,7-5.8,11.4-7.8c4.4-1.9,9.2-2.9,14.3-2.9h14.4v19.3H58.2
		C53.4,65.8,49.4,67.5,46.1,70.7z"/>
	<path d="M206.5,83.1v-2.7c0-2.2-0.4-4.3-1.3-6.3c-0.9-2-2.1-3.7-3.7-5.3c-1.6-1.5-3.3-2.7-5.4-3.6c-2-0.9-4.2-1.3-6.5-1.3
		c-2.2,0-4.3,0.4-6.3,1.3c-2,0.8-3.7,2-5.3,3.5c-1.5,1.5-2.7,3.1-3.7,5.1c-0.9,1.9-1.4,4-1.5,6.2v35h-19V46.7h19v5.2
		c1.8-2.4,4.2-4.2,7.4-5.3c3.1-1.2,6.3-1.7,9.4-1.7c5,0,9.6,0.9,14,2.8c4.3,1.9,8.2,4.4,11.4,7.6c3.3,3.2,5.9,7,7.7,11.3
		c1.9,4.3,2.8,9,2.8,13.9V115h-19v-2.5L206.5,83.1L206.5,83.1z"/>
	<path d="M277,115h-19.2l-26.3-55V46.5h14.6l21.3,45.2l21.3-45.2h14.6V60L277,115z"/>
	<path d="M364,88.2h-37.5c0.7,1.5,1.8,3.1,3.3,4.7c3.3,3.3,7.3,4.9,12,4.9c3.6-0.1,6.9-1.2,9.8-3.3l16.5,10.5
		c-3.2,3.6-7,6.5-11.5,8.6s-9.4,3.1-14.7,3.1c-5,0-9.6-0.9-14-2.8s-8.2-4.4-11.5-7.6s-5.9-7-7.8-11.4c-1.9-4.3-2.9-9-2.9-14
		s0.9-9.6,2.8-14s4.4-8.2,7.6-11.5s7-5.9,11.3-7.8c4.3-1.9,9-2.9,14.1-2.9c5,0,9.6,0.9,14,2.8c4.4,1.9,8.2,4.4,11.4,7.6
		c3.2,3.2,5.8,7,7.7,11.4c1.9,4.3,2.9,9,2.9,14c0,2.7-0.3,5.2-0.8,7.7L364,88.2L364,88.2z M341.5,64c-4.6,0-8.6,1.6-11.8,4.9
		c-2,2.1-3.3,4.3-4.1,6.6h32.2c-0.8-2.6-2.2-4.8-4.3-6.8C350.1,65.5,346.1,64,341.5,64z"/>
	<path d="M422.2,64c-5.9,0.1-10.8,1.7-14.6,4.7c-3.8,3.1-5.8,6.8-6.1,11.2V115h-19V46.5h19v5.2c1.8-2.4,4.3-4.2,7.6-5.3
		c3.3-1.2,7.6-1.7,13-1.7V64H422.2z"/>
	<path d="M443.2,115V65.5h-15.4v-19h15.4V22.6h19v23.9h16v19h-16V115H443.2z"/>
	<path d="M485,84.6V65.7h45.5v18.9H485z"/>
	<path class="st0" d="M536.6,65.5v-19H552v-1.6c0-4.3,0.7-8.3,2.1-12c1.4-3.8,3.3-7.2,5.9-10.3L573.7,36c-1.7,2.7-2.6,5.7-2.7,8.9
		v1.6h16v19h-16V115h-19V65.5H536.6z"/>
	<path class="st0" d="M592,32.4c0-2.8,1-5.2,2.9-7c1.9-1.9,4.3-2.8,7.1-2.8s5.2,0.9,7,2.8c1.9,1.9,2.8,4.2,2.8,7s-0.9,5.2-2.8,7.1
		c-1.9,1.9-4.2,2.9-7,2.9s-5.2-1-7.1-2.9C593,37.6,592,35.3,592,32.4z M611.5,115h-19V46.5h19V115z"/>
	<path class="st0" d="M636.2,115h-19V22.6h19V115z"/>
	<path class="st0" d="M700.6,88.2h-37.5c0.7,1.5,1.8,3.1,3.3,4.7c3.3,3.3,7.3,4.9,12,4.9c3.6-0.1,6.9-1.2,9.8-3.3l16.5,10.5
		c-3.2,3.6-7,6.5-11.5,8.6s-9.4,3.1-14.7,3.1c-5,0-9.6-0.9-14-2.8s-8.2-4.4-11.5-7.6s-5.9-7-7.8-11.4c-1.9-4.3-2.9-9-2.9-14
		s0.9-9.6,2.8-14s4.4-8.2,7.6-11.5c3.2-3.3,7-5.9,11.3-7.8c4.3-1.9,9-2.9,14.1-2.9c5,0,9.6,0.9,14,2.8c4.4,1.9,8.2,4.4,11.4,7.6
		c3.2,3.2,5.8,7,7.7,11.4c1.9,4.3,2.9,9,2.9,14c0,2.7-0.3,5.2-0.8,7.7L700.6,88.2L700.6,88.2z M678.1,64c-4.6,0-8.6,1.6-11.8,4.9
		c-2,2.1-3.3,4.3-4.1,6.6h32.2c-0.8-2.6-2.2-4.8-4.3-6.8C686.7,65.5,682.7,64,678.1,64z"/>
	<path d="M737.7,115h-19V96h19V115z"/>
	<path d="M779.2,44.7c5,0,9.6,0.9,14,2.8c4.4,1.9,8.2,4.4,11.4,7.6c3.2,3.2,5.8,7,7.7,11.4c1.9,4.3,2.9,9,2.9,14s-0.9,9.6-2.7,14
		s-4.3,8.2-7.6,11.4c-3.2,3.2-7,5.8-11.4,7.8c-4.3,1.9-9,2.9-14,2.9s-9.6-0.9-14-2.8s-8.2-4.4-11.5-7.6s-5.9-7-7.8-11.4
		c-1.9-4.3-2.9-9-2.9-14s0.9-9.6,2.7-14s4.3-8.2,7.6-11.4c3.2-3.2,7-5.8,11.4-7.8C769.5,45.6,774.2,44.7,779.2,44.7z M791.3,92.7
		c3.3-3.3,4.9-7.3,4.9-12c0-2.3-0.4-4.5-1.3-6.5c-0.9-2-2.1-3.9-3.7-5.5c-3.4-3.2-7.4-4.8-12-4.8s-8.6,1.6-11.8,4.9
		c-3.3,3.5-4.9,7.4-4.9,12s1.7,8.6,5.1,12c3.3,3.3,7.3,4.9,12,4.9c2.3-0.1,4.5-0.6,6.5-1.4C788,95.5,789.8,94.3,791.3,92.7z"/>
	<path d="M873.2,83.1v-2.7c0-2.2-0.4-4.3-1.3-6.3c-0.9-2-2.1-3.7-3.7-5.3c-1.6-1.5-3.3-2.7-5.4-3.6c-2-0.9-4.2-1.3-6.5-1.3
		c-2.2,0-4.3,0.4-6.3,1.3c-2,0.8-3.7,2-5.3,3.5c-1.5,1.5-2.7,3.1-3.7,5.1c-0.9,1.9-1.4,4-1.5,6.2v35h-19V46.7h19v5.2
		c1.8-2.4,4.2-4.2,7.4-5.3c3.1-1.2,6.3-1.7,9.4-1.7c5,0,9.6,0.9,14,2.8c4.3,1.9,8.2,4.4,11.4,7.6c3.3,3.2,5.9,7,7.7,11.3
		c1.9,4.3,2.8,9,2.8,13.9V115h-19v-2.5L873.2,83.1L873.2,83.1z"/>
	<path d="M916.9,115h-19V22.6h19V115z"/>
	<path d="M922.1,32.4c0-2.8,1-5.2,2.9-7c1.9-1.9,4.3-2.8,7.1-2.8s5.2,0.9,7,2.8c1.9,1.9,2.8,4.2,2.8,7s-0.9,5.2-2.8,7.1
		c-1.9,1.9-4.2,2.9-7,2.9s-5.2-1-7.1-2.9C923.1,37.6,922.1,35.3,922.1,32.4z M941.6,115h-19V46.5h19V115z"/>
	<path d="M999.9,83.1v-2.7c0-2.2-0.4-4.3-1.3-6.3c-0.9-2-2.1-3.7-3.7-5.3c-1.6-1.5-3.3-2.7-5.4-3.6c-2-0.9-4.2-1.3-6.5-1.3
		c-2.2,0-4.3,0.4-6.3,1.3c-2,0.8-3.7,2-5.3,3.5c-1.5,1.5-2.7,3.1-3.7,5.1c-0.9,1.9-1.4,4-1.5,6.2v35h-19V46.7h19v5.2
		c1.8-2.4,4.2-4.2,7.4-5.3c3.1-1.2,6.3-1.7,9.4-1.7c5,0,9.6,0.9,14,2.8c4.3,1.9,8.2,4.4,11.4,7.6c3.3,3.2,5.9,7,7.7,11.3
		c1.9,4.3,2.8,9,2.8,13.9V115h-19v-2.5L999.9,83.1L999.9,83.1z"/>
	<path d="M1083.5,88.2H1046c0.7,1.5,1.8,3.1,3.3,4.7c3.3,3.3,7.3,4.9,12,4.9c3.6-0.1,6.9-1.2,9.8-3.3l16.5,10.5
		c-3.2,3.6-7,6.5-11.5,8.6s-9.4,3.1-14.7,3.1c-5,0-9.6-0.9-14-2.8s-8.2-4.4-11.5-7.6s-5.9-7-7.8-11.4c-1.9-4.3-2.9-9-2.9-14
		s0.9-9.6,2.8-14s4.4-8.2,7.6-11.5s7-5.9,11.3-7.8c4.3-1.9,9-2.9,14.1-2.9c5,0,9.6,0.9,14,2.8c4.4,1.9,8.2,4.4,11.4,7.6
		c3.2,3.2,5.8,7,7.7,11.4c1.9,4.3,2.9,9,2.9,14c0,2.7-0.3,5.2-0.8,7.7L1083.5,88.2L1083.5,88.2z M1061,64c-4.6,0-8.6,1.6-11.8,4.9
		c-2,2.1-3.3,4.3-4.1,6.6h32.2c-0.8-2.6-2.2-4.8-4.3-6.8C1069.6,65.5,1065.6,64,1061,64z"/>
	<g id="Слой_2_1_">
		<path class="st0" d="M557.5,26c0,0,6.6-11.4,19.9-15l3.8,18.7c0,0-5.6,1.7-7.9,7.1L557.5,26z"/>
	</g>
	<path class="st0" d="M573.2,36.8c0,0,2-4.1,7.9-7.1l-6.3-0.9l-3.2,2.8L573.2,36.8z"/>
	<g>
		<path class="st0" d="M94.2,94.4c-1.3-1.5-3.1-4.1-4.2-7.6c-0.4-1.2-1.1-3.9-1.1-7.5c0.1-3.1,0.7-5.4,1.2-6.8
			c1.1-3.3,2.6-5.5,3.2-6.3c1.8-2.5,3.7-3.9,4.9-4.9c1.4-1.1,3.5-2.6,6.6-3.7c3.3-1.2,6.1-1.2,7.6-1.2c3.1,0,5.7,0.6,7.6,1.2
			c-0.2-2-0.5-4-0.8-6.1c-2.6-0.4-4.9-0.5-6.8-0.5c-1.5,0-4,0-7.2,0.6c-0.4,0.1-2.8,0.5-5.3,1.4c-7.7,2.7-12.2,8-12.6,7.6
			c-0.3-0.3,2.1-3.3,5.1-5.7c0.8-0.6,3.2-2.4,6.8-3.8c3.4-1.3,6.1-1.6,8.6-1.8c2.7-0.3,6.6-0.4,11.2,0.3c3-0.4,6-0.9,9-1.3
			c-2-1-4.8-2.2-8.2-2.9c-4.5-1-8.1-0.9-9.7-0.8c-1.6,0.1-7.7,0.6-14.5,4.3c-5.6,3-8.9,6.7-9.9,7.9c-1.4,1.6-3.5,4.4-5.3,8.3
			c-0.5,1-1.9,4.2-2.6,8.7c-0.4,2-1,6.1-0.2,11.3c0.2,1,1,6,4.1,11.8c1.8,3.3,3.9,5.8,5.4,7.4c-1.8,2.4-3.5,4.9-5.3,7.3
			c8.2-1.1,16.5-2.2,24.7-3.4c-1.2-8.4-2.3-16.8-3.5-25.2"/>
		<path d="M131,65.5c1.3,1.8,3.5,5.2,4.4,10c0.9,4.6,0.2,8.3-0.1,9.7c-1.1,4.7-3.4,7.9-4.4,9.2c-0.8,1-2.6,3.1-5.6,5.1
			c-1.1,0.7-4.1,2.5-8.3,3.3c-3.8,0.8-6.9,0.5-8.9,0.1c0.2,1.6,0.4,3.2,0.5,4.8c1.5,0.1,3.6,0.2,6,0c1.7-0.1,4.8-0.4,8.5-1.6
			c2.1-0.7,4.8-1.8,7.7-3.6c5.3-3.4,8.1-7.3,8.4-7c0.3,0.2-1.1,2.4-2.5,4.2c-0.5,0.6-2.9,3.5-7.5,6c-3.6,2-6.7,2.7-9.1,3.2
			c-0.7,0.2-3.6,0.8-7.4,1c-1.8,0.1-3.4,0.1-4.5,0c-3.8,0.6-7.5,1.2-11.3,1.8c1.5,0.7,3.5,1.6,6,2.3c4.7,1.3,8.5,1.3,9.8,1.3
			c1.2,0,5.4-0.1,10.7-1.9c4.8-1.6,8.1-3.9,9.3-4.7c2.7-2,4.7-3.9,5.8-5.3c2.2-2.5,3.4-4.7,4.1-5.9c0.8-1.5,2.2-3.9,3.3-7.4
			c0.8-2.7,1.1-4.8,1.2-6c0.5-4.4,0.1-7.8,0-8.9c-0.5-4.2-1.7-7.4-2.2-8.6c-0.6-1.5-1.8-4.1-3.9-7.1c-1.1-1.5-2.1-2.7-2.9-3.6
			c1.9-2.6,3.8-5.1,5.7-7.7c-7.5,1.1-14.9,2.2-22.4,3.3c1.1,7.4,2.2,14.9,3.3,22.3"/>
	</g>
</g>
</svg>
