<?xml version="1.0" encoding="utf-8"?>
<!-- Generator: Adobe Illustrator 24.3.0, SVG Export Plug-In . SVG Version: 6.00 Build 0)  -->
<svg version="1.1" id="Слой_1" xmlns="http://www.w3.org/2000/svg" xmlns:xlink="http://www.w3.org/1999/xlink" x="0px" y="0px"
	 viewBox="0 0 650 140" style="enable-background:new 0 0 650 140;" xml:space="preserve">
<style type="text/css">
	.st0{fill:#D74D3C;}
</style>
<g>
	<path d="M27,78.3v23.3H8.4V11.2h34.2c5.4,0,10.1,0.8,14.2,2.4c4.1,1.6,7.5,3.9,10.2,6.8c2.7,2.9,4.8,6.4,6.1,10.5
		c1.3,4,2,8.5,2,13.3c0,4.9-0.6,9.3-1.9,13.5c-1.3,4.1-3.2,7.7-5.9,10.8c-2.6,3.1-6,5.5-10.1,7.2c-4.1,1.7-9,2.6-14.6,2.6H27z
		 M27,59.7h15.9c1.6,0,3.3-0.4,4.9-1.1c1.6-0.7,3-1.8,4.3-3.2c1.3-1.4,2.3-3,3.1-4.9c0.8-1.9,1.2-3.9,1.2-6.2c0-2.5-0.5-4.7-1.6-6.6
		c-1-1.9-2.3-3.4-3.7-4.5s-2.9-2-4.4-2.6c-1.5-0.6-2.7-0.8-3.6-0.8H27V59.7z"/>
	<path d="M132.5,70.4v-2.6c0-2.2-0.4-4.2-1.3-6.2c-0.9-1.9-2.1-3.7-3.6-5.1c-1.5-1.5-3.3-2.6-5.3-3.5c-2-0.9-4.1-1.3-6.4-1.3
		c-2.2,0-4.2,0.4-6.2,1.2c-1.9,0.8-3.7,2-5.1,3.4c-1.5,1.4-2.7,3.1-3.6,4.9c-0.9,1.9-1.4,3.9-1.5,6v34.3H81V34.7h18.6v5.1
		c1.7-2.3,4.1-4.1,7.2-5.2c3.1-1.1,6.1-1.7,9.2-1.7c4.9,0,9.4,0.9,13.6,2.7c4.2,1.8,8,4.3,11.2,7.5c3.2,3.2,5.7,6.9,7.5,11.1
		c1.8,4.2,2.7,8.8,2.7,13.6v33.7h-18.6v-2.5V70.4z"/>
	<path d="M178.9,109.2c0.4,0.4,0.9,0.9,1.5,1.4c0.6,0.5,1.1,0.9,1.8,1.4c2.9,2.2,6.2,3.2,9.9,3.2c2.3-0.1,4.4-0.5,6.4-1.4
		c2-0.8,3.7-2,5.2-3.6c1.2-1.2,2.2-2.6,3.1-4c0.8-1.5,1.4-3,1.8-4.7v-6.4c-0.7,1.6-1.6,2.9-2.9,3.9c-1.2,1-2.6,1.9-4.1,2.5
		c-1.5,0.6-3.1,1-4.7,1.2c-1.6,0.2-3.2,0.3-4.7,0.3c-4.9,0-9.4-0.9-13.6-2.8c-4.2-1.9-8-4.4-11.2-7.6c-3.2-3.2-5.7-6.9-7.5-11.2
		c-1.8-4.3-2.7-8.8-2.7-13.7c0-4.8,0.9-9.4,2.7-13.6c1.8-4.2,4.3-7.9,7.5-11.1c3.2-3.2,6.9-5.6,11.2-7.5c4.2-1.8,8.8-2.7,13.6-2.7
		c3,0,6.1,0.6,9.2,1.7c3.1,1.1,5.5,2.9,7.2,5.2v-5.1H227v63.6c0,4.8-0.9,9.4-2.7,13.7c-1.8,4.3-4.2,8-7.4,11.2
		c-3.2,3.2-6.9,5.7-11.1,7.6c-4.2,1.9-8.8,2.9-13.6,2.9c-4.4,0-8.6-0.7-12.5-2.2c-3.9-1.5-7.5-3.6-10.6-6.2c-1.2-1-2.2-2-2.9-3
		L178.9,109.2z M192.1,51.6c-2.2,0-4.2,0.4-6.2,1.2c-2,0.8-3.7,1.9-5.1,3.3c-1.5,1.4-2.7,3-3.6,4.9c-0.9,1.9-1.5,3.8-1.6,5.9l-0.1,1
		l0.1,1c0.2,2.1,0.7,4.1,1.6,5.9c0.9,1.9,2.1,3.5,3.6,4.9c1.5,1.4,3.2,2.5,5.1,3.2s4,1.2,6.2,1.2c2.2,0,4.2-0.4,6.2-1.2
		c1.9-0.8,3.7-1.9,5.1-3.4c1.5-1.4,2.6-3.1,3.5-4.9c0.9-1.9,1.4-3.9,1.6-6v-1.4c-0.2-2.2-0.7-4.2-1.6-6c-0.9-1.9-2-3.5-3.5-4.9
		c-1.5-1.4-3.2-2.6-5.1-3.4C196.3,52.1,194.2,51.6,192.1,51.6z"/>
	<path class="st0" d="M233.4,83c2.9-2.3,5.4-4.4,7.5-6.2c2.2-1.8,4.2-3.5,6.2-5.1c2-1.6,4.1-3.3,6.2-5.1c2.2-1.8,4.7-3.8,7.5-6.2
		c6.6-5.8,10.6-10,11.9-12.5c1.3-2.5,2-4.9,2-7.3c0-1.3-0.2-2.5-0.7-3.7c-0.5-1.2-1.1-2.2-2-3.2c-0.9-1-1.9-1.7-3.1-2.3
		c-1.2-0.6-2.4-0.8-3.8-0.8c-1.9,0-3.7,0.4-5.5,1.2c-1.8,0.8-3.5,1.6-5.3,2.6L240.9,21c7-6.5,14.2-9.8,21.6-9.8
		c4.9,0,9.4,0.9,13.3,2.8c3.9,1.9,7.3,4.3,10.1,7.2c2.8,2.9,5,6.2,6.4,9.8c1.5,3.6,2.2,7.1,2.2,10.5c0,4.2-0.9,8.2-2.7,12.2
		c-1.8,4-4.4,7.8-8,11.3L262.5,83h32v18.6h-61.1V83z"/>
	<path d="M388.5,78.8l30.2-67.6h14.8v13.1l-35.2,77.2h-19.4L367,76.5l-11.4,25.1h-19.4L301,24.3V11.2h14.8l30,67.6L376,11.2h14.8
		v13.1L377.3,54L388.5,78.8z"/>
	<path d="M483.5,75.3h-36.7c0.7,1.5,1.8,3,3.2,4.5c3.2,3.2,7.1,4.8,11.7,4.8c3.6-0.1,6.8-1.2,9.6-3.2l16.1,10.3
		c-3.1,3.6-6.9,6.3-11.2,8.4c-4.4,2-9.2,3.1-14.4,3.1c-4.9,0-9.4-0.9-13.7-2.7c-4.3-1.8-8-4.3-11.2-7.5c-3.2-3.2-5.7-6.9-7.6-11.1
		c-1.9-4.2-2.8-8.8-2.8-13.7c0-4.9,0.9-9.4,2.7-13.7c1.8-4.3,4.3-8,7.4-11.2c3.1-3.2,6.8-5.7,11.1-7.6c4.2-1.9,8.8-2.8,13.8-2.8
		c4.9,0,9.4,0.9,13.7,2.7s8,4.3,11.2,7.5c3.2,3.2,5.7,6.9,7.5,11.1c1.9,4.2,2.8,8.8,2.8,13.7c0,2.6-0.3,5.1-0.8,7.5H483.5z
		 M461.5,51.6c-4.5,0-8.4,1.6-11.6,4.8c-1.9,2.1-3.2,4.2-4,6.5h31.5c-0.8-2.5-2.2-4.7-4.2-6.6C470,53.2,466.1,51.6,461.5,51.6z"/>
	<path d="M571.9,68.4c0,4.9-0.9,9.4-2.7,13.7c-1.8,4.2-4.3,7.9-7.5,11c-3.2,3.1-6.9,5.6-11.2,7.3c-4.2,1.8-8.8,2.7-13.7,2.7
		c-3,0-6.1-0.5-9.2-1.6c-3.1-1-5.5-2.7-7.2-5.1v5.1h-18.6V11.2h18.6V41c0.6-1.6,1.5-2.9,2.8-4c1.3-1.1,2.6-1.9,4.2-2.5
		c1.5-0.6,3.1-1,4.7-1.3c1.6-0.3,3.2-0.4,4.7-0.4c4.9,0,9.4,0.9,13.7,2.8c4.2,1.9,8,4.4,11.2,7.7c3.2,3.2,5.7,7,7.5,11.4
		C571,59,571.9,63.6,571.9,68.4z M536.8,84.7c2.2,0,4.2-0.4,6.2-1.2c2-0.8,3.7-1.9,5.1-3.3c1.5-1.4,2.7-3,3.6-4.9
		c0.9-1.9,1.5-3.8,1.6-5.9l0.1-1l-0.1-1c-0.2-2.1-0.7-4-1.6-5.9c-0.9-1.9-2.1-3.5-3.6-4.9c-1.5-1.4-3.2-2.5-5.1-3.2
		c-2-0.8-4-1.2-6.2-1.2c-2.2,0-4.2,0.4-6.2,1.2c-2,0.8-3.7,1.9-5.1,3.4c-1.5,1.4-2.7,3.1-3.6,4.9c-0.9,1.9-1.4,3.9-1.5,6v1.4
		c0.1,2.2,0.6,4.2,1.5,6c0.9,1.9,2.1,3.5,3.6,4.9c1.5,1.4,3.2,2.6,5.1,3.4C532.6,84.2,534.6,84.7,536.8,84.7z"/>
	<path d="M647.7,67.9c0,4.9-0.9,9.4-2.7,13.7c-1.8,4.3-4.3,8-7.5,11.2c-3.2,3.2-6.9,5.7-11.2,7.6c-4.2,1.9-8.8,2.8-13.6,2.8
		c-1.5,0-3-0.1-4.7-0.3c-1.6-0.2-3.2-0.6-4.7-1.2c-1.5-0.6-2.9-1.4-4.2-2.5c-1.3-1-2.2-2.3-2.8-3.9v29.8h-18.6V34.7h18.6v5.1
		c1.7-2.3,4.1-4.1,7.2-5.2c3.1-1.1,6.1-1.7,9.2-1.7c4.9,0,9.4,0.9,13.6,2.7c4.2,1.8,8,4.3,11.2,7.5c3.2,3.2,5.7,6.9,7.5,11.1
		C646.8,58.5,647.7,63,647.7,67.9z M612.6,51.6c-2.2,0-4.2,0.4-6.2,1.2c-2,0.8-3.7,2-5.1,3.4c-1.5,1.4-2.7,3.1-3.6,4.9
		c-0.9,1.9-1.4,3.9-1.5,6v1.4c0.1,2.2,0.6,4.2,1.5,6c0.9,1.9,2.1,3.5,3.6,4.9c1.5,1.4,3.2,2.6,5.1,3.4c1.9,0.8,4,1.2,6.2,1.2
		c2.2,0,4.2-0.4,6.2-1.2s3.7-1.9,5.1-3.2c1.5-1.4,2.7-3,3.6-4.9c0.9-1.9,1.5-3.8,1.6-5.9l0.1-1l-0.1-1c-0.2-2.1-0.7-4.1-1.6-5.9
		c-0.9-1.9-2.1-3.5-3.6-4.9c-1.5-1.4-3.2-2.5-5.1-3.3C616.8,52.1,614.8,51.6,612.6,51.6z"/>
</g>
</svg>
