<?xml version="1.0" encoding="utf-8"?>
<!-- Generator: Adobe Illustrator 24.3.0, SVG Export Plug-In . SVG Version: 6.00 Build 0)  -->
<svg version="1.1" id="Слой_1" xmlns="http://www.w3.org/2000/svg" xmlns:xlink="http://www.w3.org/1999/xlink" x="0px" y="0px"
	 viewBox="0 0 650 140" style="enable-background:new 0 0 650 140;" xml:space="preserve">
<style type="text/css">
	.st0{fill:#D74D3C;}
</style>
<g>
	<path d="M91.8,77l30.4-68.1h14.9v13.2L101.6,100H82.1L70.2,74.7L58.7,100H39.1L3.6,22.1V8.9h14.9L48.8,77L79.2,8.9h14.9v13.2
		L80.5,52L91.8,77z"/>
	<path d="M187.6,73.5h-36.9c0.7,1.5,1.8,3,3.3,4.6c3.2,3.2,7.2,4.8,11.8,4.8c3.6-0.1,6.8-1.2,9.7-3.3L191.6,90
		c-3.1,3.6-6.9,6.4-11.3,8.4c-4.4,2.1-9.2,3.1-14.5,3.1c-4.9,0-9.5-0.9-13.8-2.8c-4.3-1.8-8.1-4.3-11.3-7.5
		c-3.2-3.2-5.8-6.9-7.7-11.2c-1.9-4.3-2.8-8.9-2.8-13.8c0-4.9,0.9-9.5,2.8-13.8c1.8-4.3,4.3-8.1,7.5-11.3c3.1-3.2,6.9-5.8,11.1-7.7
		c4.3-1.9,8.9-2.8,13.9-2.8c4.9,0,9.5,0.9,13.8,2.8c4.3,1.8,8.1,4.3,11.3,7.5c3.2,3.2,5.7,6.9,7.6,11.2c1.9,4.3,2.8,8.9,2.8,13.8
		c0,2.6-0.3,5.2-0.8,7.6H187.6z M165.4,49.7c-4.5,0-8.4,1.6-11.7,4.8c-1.9,2.1-3.3,4.3-4.1,6.5h31.7c-0.8-2.5-2.2-4.8-4.2-6.7
		C173.9,51.2,170,49.7,165.4,49.7z"/>
	<path d="M276.7,66.6c0,4.9-0.9,9.5-2.8,13.8c-1.8,4.3-4.4,8-7.6,11.1c-3.2,3.1-7,5.6-11.3,7.4c-4.3,1.8-8.9,2.7-13.8,2.7
		c-3.1,0-6.1-0.5-9.2-1.6c-3.1-1-5.5-2.8-7.3-5.1v5.1H206v-91h18.7v30c0.6-1.6,1.5-2.9,2.8-4c1.3-1.1,2.7-1.9,4.2-2.6
		c1.5-0.6,3.1-1,4.8-1.3c1.7-0.3,3.2-0.4,4.7-0.4c4.9,0,9.5,0.9,13.8,2.8c4.3,1.9,8,4.5,11.3,7.7c3.2,3.3,5.8,7.1,7.6,11.5
		C275.7,57,276.7,61.7,276.7,66.6z M241.3,82.9c2.2,0,4.3-0.4,6.2-1.2c2-0.8,3.7-1.9,5.2-3.3c1.5-1.4,2.7-3,3.6-4.9
		c0.9-1.9,1.5-3.9,1.6-6l0.1-1l-0.1-1c-0.2-2.1-0.7-4.1-1.6-6c-0.9-1.9-2.1-3.5-3.6-4.9c-1.5-1.4-3.2-2.5-5.2-3.3
		c-2-0.8-4-1.2-6.2-1.2c-2.2,0-4.3,0.4-6.2,1.2c-2,0.8-3.7,2-5.2,3.4c-1.5,1.4-2.7,3.1-3.6,5c-0.9,1.9-1.4,3.9-1.5,6.1v1.4
		c0.1,2.2,0.6,4.2,1.5,6.1c0.9,1.9,2.1,3.5,3.6,5c1.5,1.4,3.2,2.6,5.2,3.4C237,82.5,239.1,82.9,241.3,82.9z"/>
	<path d="M353,66c0,4.9-0.9,9.5-2.8,13.8s-4.4,8.1-7.6,11.3c-3.2,3.2-7,5.8-11.3,7.7c-4.3,1.9-8.9,2.8-13.8,2.8
		c-1.5,0-3.1-0.1-4.7-0.3c-1.7-0.2-3.3-0.6-4.8-1.2c-1.5-0.6-2.9-1.4-4.2-2.5c-1.3-1-2.2-2.4-2.8-3.9v30h-18.7v-91h18.7v5.1
		c1.7-2.4,4.2-4.1,7.3-5.2c3.1-1.1,6.2-1.7,9.2-1.7c4.9,0,9.5,0.9,13.8,2.8c4.3,1.8,8,4.3,11.3,7.5c3.2,3.2,5.8,6.9,7.6,11.2
		C352.1,56.6,353,61.1,353,66z M317.7,49.7c-2.2,0-4.3,0.4-6.2,1.2c-2,0.8-3.7,2-5.2,3.4c-1.5,1.4-2.7,3.1-3.6,5
		c-0.9,1.9-1.4,3.9-1.5,6.1v1.4c0.1,2.2,0.6,4.2,1.5,6.1c0.9,1.9,2.1,3.5,3.6,5c1.5,1.4,3.2,2.6,5.2,3.4c2,0.8,4,1.2,6.2,1.2
		c2.2,0,4.3-0.4,6.2-1.2c2-0.8,3.7-1.9,5.2-3.3c1.5-1.4,2.7-3,3.6-4.9c0.9-1.9,1.5-3.9,1.6-6l0.1-1l-0.1-1c-0.2-2.1-0.7-4.1-1.6-6
		c-0.9-1.9-2.1-3.5-3.6-4.9c-1.5-1.4-3.2-2.5-5.2-3.3C321.9,50.1,319.8,49.7,317.7,49.7z"/>
	<path class="st0" d="M359.4,81.2c2.9-2.4,5.4-4.4,7.6-6.2c2.2-1.8,4.3-3.5,6.3-5.1c2-1.6,4.1-3.3,6.3-5.1c2.2-1.8,4.7-3.9,7.6-6.2
		c6.6-5.9,10.6-10,12-12.6c1.4-2.5,2-5,2-7.3c0-1.3-0.2-2.6-0.7-3.7c-0.5-1.2-1.2-2.2-2-3.2c-0.9-1-1.9-1.7-3.1-2.3
		c-1.2-0.6-2.5-0.9-3.9-0.9c-1.9,0-3.8,0.4-5.6,1.2c-1.8,0.8-3.6,1.7-5.3,2.6L367,18.7c7.1-6.5,14.3-9.8,21.7-9.8
		c5,0,9.5,0.9,13.4,2.8c4,1.9,7.4,4.3,10.2,7.3c2.8,3,5,6.3,6.5,9.9c1.5,3.6,2.2,7.1,2.2,10.5c0,4.2-0.9,8.3-2.7,12.3
		c-1.8,4-4.5,7.8-8.1,11.4l-21.6,18.1H421V100h-61.6V81.2z"/>
	<path d="M445.6,76.5V100h-18.7v-91h34.5c5.4,0,10.2,0.8,14.3,2.4c4.1,1.6,7.5,3.9,10.3,6.9c2.8,3,4.8,6.5,6.2,10.5
		c1.4,4.1,2,8.5,2,13.4c0,4.9-0.6,9.4-1.9,13.6c-1.3,4.1-3.2,7.8-5.9,10.9c-2.7,3.1-6.1,5.5-10.2,7.3c-4.1,1.7-9.1,2.6-14.7,2.6
		H445.6z M445.6,57.8h16c1.7,0,3.3-0.4,4.9-1.1c1.6-0.7,3.1-1.8,4.3-3.2c1.3-1.4,2.3-3,3.1-4.9c0.8-1.9,1.2-4,1.2-6.2
		c0-2.5-0.5-4.7-1.6-6.6c-1-1.9-2.3-3.4-3.7-4.6c-1.4-1.2-2.9-2.1-4.5-2.6c-1.5-0.6-2.7-0.9-3.6-0.9h-16.2V57.8z"/>
	<path d="M552,68.5v-2.6c0-2.2-0.4-4.3-1.3-6.2c-0.9-2-2.1-3.7-3.6-5.2c-1.5-1.5-3.3-2.7-5.3-3.5c-2-0.9-4.1-1.3-6.4-1.3
		c-2.2,0-4.3,0.4-6.2,1.2c-2,0.8-3.7,2-5.2,3.4c-1.5,1.4-2.7,3.1-3.6,5c-0.9,1.9-1.4,3.9-1.5,6.1V100h-18.7V32.6h18.7v5.1
		c1.7-2.4,4.2-4.1,7.3-5.2c3.1-1.1,6.2-1.7,9.2-1.7c4.9,0,9.5,0.9,13.8,2.7c4.3,1.8,8,4.3,11.3,7.5c3.2,3.2,5.8,6.9,7.6,11.2
		c1.8,4.3,2.8,8.8,2.8,13.7v34H552v-2.5V68.5z"/>
	<path d="M598.8,107.7c0.4,0.4,0.9,0.9,1.5,1.4c0.6,0.5,1.2,0.9,1.8,1.4c3,2.2,6.3,3.3,10,3.3c2.3-0.1,4.4-0.5,6.4-1.4
		c2-0.8,3.8-2,5.2-3.6c1.2-1.2,2.2-2.6,3.1-4.1c0.8-1.5,1.4-3.1,1.8-4.7v-6.4c-0.7,1.6-1.7,2.9-2.9,3.9c-1.2,1-2.6,1.9-4.1,2.5
		c-1.5,0.6-3.1,1-4.8,1.2c-1.7,0.2-3.2,0.3-4.7,0.3c-4.9,0-9.5-0.9-13.8-2.8c-4.3-1.9-8-4.4-11.3-7.6c-3.2-3.2-5.8-7-7.6-11.3
		c-1.8-4.3-2.8-8.9-2.8-13.8c0-4.9,0.9-9.5,2.8-13.7c1.8-4.3,4.4-8,7.6-11.2c3.2-3.2,7-5.7,11.3-7.5c4.3-1.8,8.9-2.7,13.8-2.7
		c3.1,0,6.1,0.6,9.2,1.7c3.1,1.1,5.5,2.9,7.3,5.2v-5.1h18.7v64.1c0,4.9-0.9,9.5-2.7,13.8c-1.8,4.3-4.3,8.1-7.5,11.3
		c-3.2,3.2-6.9,5.7-11.2,7.7c-4.3,1.9-8.9,2.9-13.8,2.9c-4.5,0-8.7-0.7-12.6-2.2c-4-1.5-7.5-3.6-10.7-6.3c-1.2-1-2.2-2.1-2.9-3
		L598.8,107.7z M612,49.7c-2.2,0-4.3,0.4-6.2,1.2c-2,0.8-3.7,1.9-5.2,3.3c-1.5,1.4-2.7,3-3.6,4.9c-0.9,1.9-1.5,3.9-1.6,6l-0.1,1
		l0.1,1c0.2,2.1,0.7,4.1,1.6,6c0.9,1.9,2.1,3.5,3.6,4.9c1.5,1.4,3.2,2.5,5.2,3.3c2,0.8,4,1.2,6.2,1.2c2.2,0,4.3-0.4,6.2-1.2
		c2-0.8,3.7-2,5.2-3.4c1.5-1.4,2.7-3.1,3.5-5c0.9-1.9,1.4-3.9,1.6-6.1v-1.4c-0.2-2.2-0.7-4.2-1.6-6.1c-0.9-1.9-2.1-3.5-3.5-5
		c-1.5-1.4-3.2-2.6-5.2-3.4C616.3,50.1,614.2,49.7,612,49.7z"/>
</g>
</svg>
