<?xml version="1.0" encoding="utf-8"?>
<!-- Generator: Adobe Illustrator 24.3.0, SVG Export Plug-In . SVG Version: 6.00 Build 0)  -->
<svg version="1.1" id="Слой_1" xmlns="http://www.w3.org/2000/svg" xmlns:xlink="http://www.w3.org/1999/xlink" x="0px" y="0px"
	 viewBox="0 0 640 140" style="enable-background:new 0 0 640 140;" xml:space="preserve">
<style type="text/css">
	.st0{fill:#D74D3C;}
</style>
<g>
	<path d="M98.5,80.6l30.4-68.1h14.9v13.2l-35.5,77.8H88.8L76.9,78.3l-11.5,25.3H45.9L10.4,25.7V12.5h14.9l30.3,68.1l30.4-68.1h14.9
		v13.2L87.3,55.6L98.5,80.6z"/>
	<path d="M194.3,77.1h-36.9c0.7,1.5,1.8,3,3.3,4.6c3.2,3.2,7.2,4.8,11.8,4.8c3.6-0.1,6.8-1.2,9.7-3.3l16.2,10.3
		c-3.1,3.6-6.9,6.4-11.3,8.4c-4.4,2.1-9.2,3.1-14.5,3.1c-4.9,0-9.5-0.9-13.8-2.8c-4.3-1.8-8.1-4.3-11.3-7.5
		c-3.2-3.2-5.8-6.9-7.7-11.2c-1.9-4.3-2.8-8.9-2.8-13.8c0-4.9,0.9-9.5,2.8-13.8s4.3-8.1,7.5-11.3c3.1-3.2,6.9-5.8,11.1-7.7
		c4.3-1.9,8.9-2.8,13.9-2.8c4.9,0,9.5,0.9,13.8,2.8c4.3,1.8,8.1,4.3,11.3,7.5c3.2,3.2,5.7,6.9,7.6,11.2c1.9,4.3,2.8,8.9,2.8,13.8
		c0,2.6-0.3,5.2-0.8,7.6H194.3z M172.1,53.2c-4.5,0-8.4,1.6-11.7,4.8c-1.9,2.1-3.3,4.3-4.1,6.5h31.7c-0.8-2.5-2.2-4.8-4.2-6.7
		C180.6,54.8,176.7,53.2,172.1,53.2z"/>
	<path d="M283.4,70.1c0,4.9-0.9,9.5-2.8,13.8c-1.8,4.3-4.4,8-7.6,11.1c-3.2,3.1-7,5.6-11.3,7.4c-4.3,1.8-8.9,2.7-13.8,2.7
		c-3.1,0-6.1-0.5-9.2-1.6c-3.1-1-5.5-2.8-7.3-5.1v5.1h-18.7v-91h18.7v30c0.6-1.6,1.5-2.9,2.8-4c1.3-1.1,2.7-1.9,4.2-2.6
		c1.5-0.6,3.1-1,4.8-1.3c1.7-0.3,3.2-0.4,4.7-0.4c4.9,0,9.5,0.9,13.8,2.8c4.3,1.9,8,4.5,11.3,7.7c3.2,3.3,5.8,7.1,7.6,11.5
		C282.4,60.6,283.4,65.2,283.4,70.1z M248,86.5c2.2,0,4.3-0.4,6.2-1.2c2-0.8,3.7-1.9,5.2-3.3c1.5-1.4,2.7-3,3.6-4.9
		c0.9-1.9,1.5-3.9,1.6-6l0.1-1l-0.1-1c-0.2-2.1-0.7-4.1-1.6-6c-0.9-1.9-2.1-3.5-3.6-4.9c-1.5-1.4-3.2-2.5-5.2-3.3
		c-2-0.8-4-1.2-6.2-1.2c-2.2,0-4.3,0.4-6.2,1.2c-2,0.8-3.7,2-5.2,3.4c-1.5,1.4-2.7,3.1-3.6,5c-0.9,1.9-1.4,3.9-1.5,6.1v1.4
		c0.1,2.2,0.6,4.2,1.5,6.1c0.9,1.9,2.1,3.5,3.6,5c1.5,1.4,3.2,2.6,5.2,3.4C243.7,86.1,245.8,86.5,248,86.5z"/>
	<path d="M359.7,69.6c0,4.9-0.9,9.5-2.8,13.8s-4.4,8.1-7.6,11.3c-3.2,3.2-7,5.8-11.3,7.7c-4.3,1.9-8.9,2.8-13.8,2.8
		c-1.5,0-3.1-0.1-4.7-0.3c-1.7-0.2-3.3-0.6-4.8-1.2c-1.5-0.6-2.9-1.4-4.2-2.5c-1.3-1-2.2-2.4-2.8-3.9v30h-18.7v-91h18.7v5.1
		c1.7-2.4,4.2-4.1,7.3-5.2c3.1-1.1,6.2-1.7,9.2-1.7c4.9,0,9.5,0.9,13.8,2.8c4.3,1.8,8,4.3,11.3,7.5c3.2,3.2,5.8,6.9,7.6,11.2
		C358.8,60.1,359.7,64.7,359.7,69.6z M324.4,53.2c-2.2,0-4.3,0.4-6.2,1.2c-2,0.8-3.7,2-5.2,3.4c-1.5,1.4-2.7,3.1-3.6,5
		c-0.9,1.9-1.4,3.9-1.5,6.1v1.4c0.1,2.2,0.6,4.2,1.5,6.1c0.9,1.9,2.1,3.5,3.6,5c1.5,1.4,3.2,2.6,5.2,3.4c2,0.8,4,1.2,6.2,1.2
		c2.2,0,4.3-0.4,6.2-1.2c2-0.8,3.7-1.9,5.2-3.3c1.5-1.4,2.7-3,3.6-4.9c0.9-1.9,1.5-3.9,1.6-6l0.1-1l-0.1-1c-0.2-2.1-0.7-4.1-1.6-6
		c-0.9-1.9-2.1-3.5-3.6-4.9c-1.5-1.4-3.2-2.5-5.2-3.3C328.6,53.6,326.5,53.2,324.4,53.2z"/>
	<path class="st0" d="M366.1,84.8c2.9-2.4,5.4-4.4,7.6-6.2c2.2-1.8,4.3-3.5,6.3-5.1c2-1.6,4.1-3.3,6.3-5.1c2.2-1.8,4.7-3.9,7.6-6.2
		c6.6-5.8,10.6-10,12-12.6c1.4-2.5,2-5,2-7.3c0-1.3-0.2-2.6-0.7-3.7c-0.5-1.2-1.2-2.2-2-3.2c-0.9-1-1.9-1.7-3.1-2.3
		c-1.2-0.6-2.5-0.9-3.9-0.9c-1.9,0-3.8,0.4-5.6,1.2c-1.8,0.8-3.6,1.7-5.3,2.6l-13.6-13.6c7.1-6.5,14.3-9.8,21.7-9.8
		c5,0,9.5,0.9,13.4,2.8c4,1.9,7.4,4.3,10.2,7.3c2.8,3,5,6.3,6.5,9.9c1.5,3.6,2.2,7.1,2.2,10.5c0,4.2-0.9,8.3-2.7,12.3
		c-1.8,4-4.5,7.8-8.1,11.4l-21.6,18.1h32.2v18.7h-61.6V84.8z"/>
	<path d="M434.9,84.9h5.1c2.3-0.1,4.3-0.5,6.2-1.2c1.8-0.7,3.7-2,5.5-3.8c1.1-1.1,2-2.2,2.6-3.3c0.6-1.1,1.1-2.1,1.4-3.1
		c0.3-1,0.5-2,0.7-2.9c0.1-1,0.3-1.8,0.5-2.6V12.5h18.7v55.4c0,4.9-0.9,9.5-2.8,13.8s-4.4,8.1-7.6,11.3c-3.2,3.2-7,5.7-11.3,7.7
		c-4.2,1.9-8.7,2.9-13.5,2.9h-5.5V84.9z"/>
	<path d="M553,69.6c0,4.9-0.9,9.5-2.8,13.8s-4.4,8.1-7.6,11.3c-3.2,3.2-7,5.8-11.3,7.7c-4.3,1.9-8.9,2.8-13.8,2.8
		c-1.5,0-3.1-0.1-4.7-0.3c-1.7-0.2-3.3-0.6-4.8-1.2c-1.5-0.6-2.9-1.4-4.2-2.5c-1.3-1-2.2-2.4-2.8-3.9v30h-18.7v-91h18.7v5.1
		c1.7-2.4,4.2-4.1,7.3-5.2c3.1-1.1,6.2-1.7,9.2-1.7c4.9,0,9.5,0.9,13.8,2.8c4.3,1.8,8,4.3,11.3,7.5c3.2,3.2,5.8,6.9,7.6,11.2
		C552,60.1,553,64.7,553,69.6z M517.6,53.2c-2.2,0-4.3,0.4-6.2,1.2c-2,0.8-3.7,2-5.2,3.4c-1.5,1.4-2.7,3.1-3.6,5
		c-0.9,1.9-1.4,3.9-1.5,6.1v1.4c0.1,2.2,0.6,4.2,1.5,6.1c0.9,1.9,2.1,3.5,3.6,5c1.5,1.4,3.2,2.6,5.2,3.4c2,0.8,4,1.2,6.2,1.2
		c2.2,0,4.3-0.4,6.2-1.2c2-0.8,3.7-1.9,5.2-3.3c1.5-1.4,2.7-3,3.6-4.9c0.9-1.9,1.5-3.9,1.6-6l0.1-1l-0.1-1c-0.2-2.1-0.7-4.1-1.6-6
		c-0.9-1.9-2.1-3.5-3.6-4.9c-1.5-1.4-3.2-2.5-5.2-3.3C521.8,53.6,519.8,53.2,517.6,53.2z"/>
	<path d="M581,111.3c0.4,0.4,0.9,0.9,1.5,1.4c0.6,0.5,1.2,0.9,1.8,1.4c3,2.2,6.3,3.3,10,3.3c2.3-0.1,4.4-0.5,6.4-1.4
		c2-0.8,3.8-2,5.2-3.6c1.2-1.2,2.2-2.6,3.1-4.1c0.8-1.5,1.4-3.1,1.8-4.7v-6.4c-0.7,1.6-1.7,2.9-2.9,3.9c-1.2,1-2.6,1.9-4.1,2.5
		c-1.5,0.6-3.1,1-4.8,1.2c-1.7,0.2-3.2,0.3-4.7,0.3c-4.9,0-9.5-0.9-13.8-2.8c-4.3-1.9-8-4.4-11.3-7.6c-3.2-3.2-5.8-7-7.6-11.3
		c-1.8-4.3-2.8-8.9-2.8-13.8c0-4.9,0.9-9.5,2.8-13.7c1.8-4.3,4.4-8,7.6-11.2c3.2-3.2,7-5.7,11.3-7.5c4.3-1.8,8.9-2.7,13.8-2.7
		c3.1,0,6.1,0.6,9.2,1.7c3.1,1.1,5.5,2.9,7.3,5.2v-5.1h18.7v64.1c0,4.9-0.9,9.5-2.7,13.8c-1.8,4.3-4.3,8.1-7.5,11.3
		c-3.2,3.2-6.9,5.7-11.2,7.7c-4.3,1.9-8.9,2.9-13.8,2.9c-4.5,0-8.7-0.7-12.6-2.2c-4-1.5-7.5-3.6-10.7-6.3c-1.2-1-2.2-2.1-2.9-3
		L581,111.3z M594.2,53.2c-2.2,0-4.3,0.4-6.2,1.2c-2,0.8-3.7,1.9-5.2,3.3c-1.5,1.4-2.7,3-3.6,4.9c-0.9,1.9-1.5,3.9-1.6,6l-0.1,1
		l0.1,1c0.2,2.1,0.7,4.1,1.6,6c0.9,1.9,2.1,3.5,3.6,4.9c1.5,1.4,3.2,2.5,5.2,3.3c2,0.8,4,1.2,6.2,1.2c2.2,0,4.3-0.4,6.2-1.2
		c2-0.8,3.7-2,5.2-3.4c1.5-1.4,2.7-3.1,3.5-5c0.9-1.9,1.4-3.9,1.6-6.1V69c-0.2-2.2-0.7-4.2-1.6-6.1c-0.9-1.9-2.1-3.5-3.5-5
		c-1.5-1.4-3.2-2.6-5.2-3.4C598.5,53.6,596.4,53.2,594.2,53.2z"/>
</g>
</svg>
